<svg viewBox="0 0 1 1" style="position: absolute; pointer-events: none; top: -1px; left: -1px; width: 1px; height: 1px;"><mask id="svg-mask-squircle" maskContentUnits="objectBoundingBox" viewBox="0 0 1 1"><path fill="white" d="M0 0.464C0 0.301585 0 0.220377 0.0316081 0.158343C0.0594114 0.103776 0.103776 0.0594114 0.158343 0.0316081C0.220377 0 0.301585 0 0.464 0H0.536C0.698415 0 0.779623 0 0.841657 0.0316081C0.896224 0.0594114 0.940589 0.103776 0.968392 0.158343C1 0.220377 1 0.301585 1 0.464V0.536C1 0.698415 1 0.779623 0.968392 0.841657C0.940589 0.896224 0.896224 0.940589 0.841657 0.968392C0.779623 1 0.698415 1 0.536 1H0.464C0.301585 1 0.220377 1 0.158343 0.968392C0.103776 0.940589 0.0594114 0.896224 0.0316081 0.841657C0 0.779623 0 0.698415 0 0.536V0.464Z"></path></mask><mask id="svg-mask-header-bar-badge" maskContentUnits="objectBoundingBox" viewBox="0 0 1 1"><rect x="0" y="0" width="1" height="1" fill="white"></rect><circle fill="black" cx="0.75" cy="0.75" r="0.25"></circle></mask><mask id="svg-mask-voice-user-summary-item" maskContentUnits="objectBoundingBox" viewBox="0 0 1 1"><rect fill="white" width="1" height="1"></rect><circle fill="black" cx="1.2083333333333333" cy="0.5" r="0.5416666666666666"></circle></mask><mask id="svg-mask-vertical-fade" maskContentUnits="objectBoundingBox" viewBox="0 0 1 1"><linearGradient id="svg-mask-vertical-fade-gradient" gradientTransform="rotate(90)" x1="0" x2="1" y1="0" y2="0"><stop offset="0%" stop-color="white"></stop><stop offset="100%" stop-color="black"></stop></linearGradient><rect x="0" y="0" width="1" height="1" fill="url(#svg-mask-vertical-fade-gradient)"></rect></mask></svg><svg viewBox="0 0 1 1" style="position: absolute; pointer-events: none; top: -1px; left: -1px; width: 1px; height: 1px;"><linearGradient id="34d2c80c-805a-4320-98e0-233b239fa702"><stop stop-color="#b473f5"></stop><stop offset="1" stop-color="#e292aa"></stop></linearGradient></svg>