<?xml version="1.0" encoding="UTF-8"?>
<svg viewBox="0 0 927 436" version="1.1" xmlns="http://www.w3.org/2000/svg" xmlns:xlink="http://www.w3.org/1999/xlink">
    <!-- Generator: Sketch 53.2 (72643) - https://sketchapp.com -->
    <title>Group</title>
    <desc>Created with Sketch.</desc>
    <defs>
        <filter x="-2.8%" y="-9.0%" width="105.7%" height="118.1%" filterUnits="objectBoundingBox" id="filter-1">
            <feGaussianBlur stdDeviation="8.51841518" in="SourceGraphic"></feGaussianBlur>
        </filter>
        <filter x="-12.9%" y="-22.9%" width="125.8%" height="145.8%" filterUnits="objectBoundingBox" id="filter-2">
            <feGaussianBlur stdDeviation="8.51841518" in="SourceGraphic"></feGaussianBlur>
        </filter>
        <filter x="-12.9%" y="-22.9%" width="125.8%" height="145.8%" filterUnits="objectBoundingBox" id="filter-3">
            <feGaussianBlur stdDeviation="8.51841518" in="SourceGraphic"></feGaussianBlur>
        </filter>
        <linearGradient x1="77.3729962%" y1="50.1785342%" x2="26.482637%" y2="46.2823062%" id="linearGradient-4">
            <stop stop-color="#2496ED" offset="0%"></stop>
            <stop stop-color="#1369AB" offset="100%"></stop>
        </linearGradient>
        <linearGradient x1="53.7005463%" y1="52.2193866%" x2="59.8650141%" y2="45.6384634%" id="linearGradient-5">
            <stop stop-color="#1369AB" stop-opacity="0" offset="0%"></stop>
            <stop stop-color="#1369AB" offset="100%"></stop>
        </linearGradient>
        <filter x="-3.0%" y="-9.6%" width="106.0%" height="119.2%" filterUnits="objectBoundingBox" id="filter-6">
            <feGaussianBlur stdDeviation="8.51841518" in="SourceGraphic"></feGaussianBlur>
        </filter>
        <linearGradient x1="0%" y1="50%" x2="100%" y2="50%" id="linearGradient-7">
            <stop stop-color="#92D7E6" offset="0%"></stop>
            <stop stop-color="#ADDFE3" offset="100%"></stop>
        </linearGradient>
        <filter x="-3.0%" y="-9.6%" width="106.0%" height="119.2%" filterUnits="objectBoundingBox" id="filter-8">
            <feGaussianBlur stdDeviation="8.51841518" in="SourceGraphic"></feGaussianBlur>
        </filter>
        <linearGradient x1="0%" y1="50%" x2="100%" y2="50%" id="linearGradient-9">
            <stop stop-color="#B5E4F7" offset="0%"></stop>
            <stop stop-color="#D1EEFC" offset="100%"></stop>
        </linearGradient>
        <filter x="-3.0%" y="-9.6%" width="106.0%" height="119.2%" filterUnits="objectBoundingBox" id="filter-10">
            <feGaussianBlur stdDeviation="8.51841518" in="SourceGraphic"></feGaussianBlur>
        </filter>
        <linearGradient x1="53.7005463%" y1="52.2193866%" x2="59.8650141%" y2="45.6384634%" id="linearGradient-11">
            <stop stop-color="#FAFAFB" offset="0%"></stop>
            <stop stop-color="#E7E8E9" offset="100%"></stop>
        </linearGradient>
        <filter x="-32.8%" y="-60.8%" width="165.5%" height="221.7%" filterUnits="objectBoundingBox" id="filter-12">
            <feGaussianBlur stdDeviation="8.51841518" in="SourceGraphic"></feGaussianBlur>
        </filter>
        <linearGradient x1="19.7019236%" y1="56.1157619%" x2="73.6778456%" y2="52.3906322%" id="linearGradient-13">
            <stop stop-color="#6BC3F3" offset="0%"></stop>
            <stop stop-color="#099CEC" offset="100%"></stop>
        </linearGradient>
        <filter x="-24.6%" y="-44.6%" width="149.2%" height="189.2%" filterUnits="objectBoundingBox" id="filter-14">
            <feGaussianBlur stdDeviation="4.17689732" in="SourceGraphic"></feGaussianBlur>
        </filter>
        <linearGradient x1="14.6387165%" y1="57.5274263%" x2="100%" y2="50%" id="linearGradient-15">
            <stop stop-color="#A4E3FA" offset="0%"></stop>
            <stop stop-color="#6BC3F3" offset="100%"></stop>
        </linearGradient>
        <filter x="-24.6%" y="-44.6%" width="149.2%" height="189.2%" filterUnits="objectBoundingBox" id="filter-16">
            <feGaussianBlur stdDeviation="4.17689732" in="SourceGraphic"></feGaussianBlur>
        </filter>
        <linearGradient x1="100%" y1="50%" x2="9.01677963%" y2="55.9042092%" id="linearGradient-17">
            <stop stop-color="#B8DDF0" offset="0%"></stop>
            <stop stop-color="#CFE6F3" offset="100%"></stop>
        </linearGradient>
        <filter x="-24.6%" y="-44.6%" width="149.2%" height="189.2%" filterUnits="objectBoundingBox" id="filter-18">
            <feGaussianBlur stdDeviation="4.17689732" in="SourceGraphic"></feGaussianBlur>
        </filter>
        <linearGradient x1="36.6718676%" y1="53.4811581%" x2="42.6630296%" y2="39.574556%" id="linearGradient-19">
            <stop stop-color="#D9F5FF" offset="0%"></stop>
            <stop stop-color="#6BC3F3" offset="100%"></stop>
        </linearGradient>
        <linearGradient x1="35.1569896%" y1="75.096591%" x2="70.9876578%" y2="50%" id="linearGradient-20">
            <stop stop-color="#A4E3FA" offset="0%"></stop>
            <stop stop-color="#6BC3F3" offset="100%"></stop>
        </linearGradient>
        <linearGradient x1="20.909178%" y1="44.7987039%" x2="48.0614188%" y2="50.9132058%" id="linearGradient-21">
            <stop stop-color="#C8EBF8" offset="0%"></stop>
            <stop stop-color="#6BC3F3" offset="100%"></stop>
        </linearGradient>
        <filter x="-32.8%" y="-60.8%" width="165.5%" height="221.7%" filterUnits="objectBoundingBox" id="filter-22">
            <feGaussianBlur stdDeviation="8.51841518" in="SourceGraphic"></feGaussianBlur>
        </filter>
        <filter x="-24.6%" y="-44.6%" width="149.2%" height="189.2%" filterUnits="objectBoundingBox" id="filter-23">
            <feGaussianBlur stdDeviation="4.17689732" in="SourceGraphic"></feGaussianBlur>
        </filter>
        <filter x="-24.6%" y="-44.6%" width="149.2%" height="189.2%" filterUnits="objectBoundingBox" id="filter-24">
            <feGaussianBlur stdDeviation="4.17689732" in="SourceGraphic"></feGaussianBlur>
        </filter>
        <filter x="-24.6%" y="-44.6%" width="149.2%" height="189.2%" filterUnits="objectBoundingBox" id="filter-25">
            <feGaussianBlur stdDeviation="4.17689732" in="SourceGraphic"></feGaussianBlur>
        </filter>
        <filter x="-32.8%" y="-60.8%" width="165.5%" height="221.7%" filterUnits="objectBoundingBox" id="filter-26">
            <feGaussianBlur stdDeviation="8.51841518" in="SourceGraphic"></feGaussianBlur>
        </filter>
        <filter x="-24.6%" y="-44.6%" width="149.2%" height="189.2%" filterUnits="objectBoundingBox" id="filter-27">
            <feGaussianBlur stdDeviation="4.17689732" in="SourceGraphic"></feGaussianBlur>
        </filter>
        <filter x="-24.6%" y="-44.6%" width="149.2%" height="189.2%" filterUnits="objectBoundingBox" id="filter-28">
            <feGaussianBlur stdDeviation="4.17689732" in="SourceGraphic"></feGaussianBlur>
        </filter>
        <filter x="-24.6%" y="-44.6%" width="149.2%" height="189.2%" filterUnits="objectBoundingBox" id="filter-29">
            <feGaussianBlur stdDeviation="4.17689732" in="SourceGraphic"></feGaussianBlur>
        </filter>
        <filter x="-32.8%" y="-60.8%" width="165.5%" height="221.7%" filterUnits="objectBoundingBox" id="filter-30">
            <feGaussianBlur stdDeviation="8.51841518" in="SourceGraphic"></feGaussianBlur>
        </filter>
        <filter x="-24.6%" y="-44.6%" width="149.2%" height="189.2%" filterUnits="objectBoundingBox" id="filter-31">
            <feGaussianBlur stdDeviation="4.17689732" in="SourceGraphic"></feGaussianBlur>
        </filter>
        <filter x="-24.6%" y="-44.6%" width="149.2%" height="189.2%" filterUnits="objectBoundingBox" id="filter-32">
            <feGaussianBlur stdDeviation="4.17689732" in="SourceGraphic"></feGaussianBlur>
        </filter>
        <filter x="-24.6%" y="-44.6%" width="149.2%" height="189.2%" filterUnits="objectBoundingBox" id="filter-33">
            <feGaussianBlur stdDeviation="4.17689732" in="SourceGraphic"></feGaussianBlur>
        </filter>
    </defs>
    <g id="Page-1" stroke="none" stroke-width="1" fill="none" fill-rule="evenodd">
        <g id="Home-Copy-2" transform="translate(-256.000000, -536.000000)">
            <g id="Group" transform="translate(270.000000, 536.000000)">
                <g id="Group-5">
                    <g id="Group-Copy-2" transform="translate(0.000000, 115.365854)">
                        <path d="M448.649129,133.872168 L645.158609,21.5776102 L898.536585,162.926829 L651.182999,304.276048 L449.887456,191.981491 L253.377976,304.276048 L-7.95807864e-13,162.926829 L247.353586,21.5776102 L448.649129,133.872168 Z" id="Combined-Shape" fill-opacity="0.35" fill="#4A4A4A" opacity="0.467982701" filter="url(#filter-1)"></path>
                        <polygon id="Rectangle-Copy-25" fill-opacity="0.54" fill="#8F9DAA" opacity="0.405668713" filter="url(#filter-2)" points="649.361014 238.778215 549.243652 182.926829 646.980594 127.075444 747.097956 182.926829"></polygon>
                        <polygon id="Rectangle-Copy-26" fill-opacity="0.54" fill="#8F9DAA" opacity="0.405668713" filter="url(#filter-3)" points="256.333909 238.778215 156.216547 182.926829 253.953489 127.075444 354.070852 182.926829"></polygon>
                        <polygon id="Rectangle-2-Copy-16" fill="#1F8ADC" points="645.560222 61.4707421 785.061114 136.766397 785.061114 146.684411 645.560222 70.7647271"></polygon>
                        <polygon id="Rectangle-2-Copy-18" fill="#1B7ECA" transform="translate(575.809776, 104.077576) scale(-1, 1) translate(-575.809776, -104.077576) " points="506.05933 61.4707421 645.560222 136.766397 645.560222 146.684411 506.05933 70.7647271"></polygon>
                        <polygon id="Rectangle-2-Copy-21" fill="#1B7ECA" transform="translate(183.737792, 105.614401) scale(-1, 1) translate(-183.737792, -105.614401) " points="113.987346 63.0075663 253.488238 138.303221 253.488238 148.221235 113.987346 72.3015513"></polygon>
                        <polygon id="Rectangle-2-Copy-20" fill="#1B7ECA" transform="translate(379.768930, 211.702542) scale(-1, 1) translate(-379.768930, -211.702542) " points="253.488238 137.315666 506.049622 276.171404 506.049622 286.089418 253.488238 146.609651"></polygon>
                        <polygon id="Rectangle-2-Copy-19" fill="#1B7ECA" transform="translate(771.838487, 211.429693) scale(-1, 1) translate(-771.838487, -211.429693) " points="645.555368 138.31004 898.121606 274.631332 898.121606 284.549346 645.555368 147.604025"></polygon>
                        <polygon id="Rectangle-2-Copy-17" fill="#2496ED" points="0.926853675 139.855531 253.493092 276.171404 253.493092 286.089418 0.926853675 149.149516"></polygon>
                        <path d="M448.191693,108.119419 L645.88423,-1.42108547e-13 L898.121606,138.310083 L645.555368,274.631332 L450.950898,169.594631 L253.493092,276.171404 L0.926853675,139.850155 L253.821954,1.54007208 L448.191693,108.119419 Z M392.998838,138.306469 L253.493092,63.0090034 L113.987346,138.306469 L253.311444,214.702473 L392.99069,138.310925 L448.191693,108.119419 Z M645.555368,61.4689314 L506.049622,136.766397 L645.37372,213.1624 L785.061114,136.766397 L645.555368,61.4689314 Z" id="Combined-Shape" fill="url(#linearGradient-4)"></path>
                        <polygon id="Rectangle-2-Copy-15" fill-opacity="0.51" fill="url(#linearGradient-5)" opacity="0.522460938" transform="translate(483.202005, 119.328514) rotate(-180.000000) translate(-483.202005, -119.328514) " points="460.387138 101.83017 518.494134 130.443756 506.644402 136.826858 447.909876 109.081715"></polygon>
                        <polygon id="Rectangle-2-Copy-11" fill="#2496ED" points="253.488238 63.0075663 645.560222 274.631332 645.560222 284.549346 253.488238 72.3015513"></polygon>
                    </g>
                    <g id="Group-2-Copy" transform="translate(1.463415, 76.097561)">
                        <path d="M447.758578,170.209845 L632.74633,64.4993329 L871.268268,197.560976 L638.417498,330.622618 L448.9243,224.912106 L263.936548,330.622618 L25.4146097,197.560976 L258.26538,64.4993329 L447.758578,170.209845 Z M636.70234,250.137687 L728.708777,197.560976 L634.461488,144.984264 L542.455051,197.560976 L636.70234,250.137687 Z M266.719169,250.137687 L358.725607,197.560976 L264.478318,144.984264 L172.471881,197.560976 L266.719169,250.137687 Z" id="Combined-Shape-Copy-6" fill="#8F9DAA" opacity="0.198893229" filter="url(#filter-6)"></path>
                        <polygon id="Rectangle-2-Copy-29" fill="#51B9BF" points="644.633368 61.4707421 784.13426 136.766397 784.13426 146.684411 644.633368 70.7647271"></polygon>
                        <polygon id="Rectangle-2-Copy-30" fill="#4B8B99" transform="translate(574.882922, 104.077576) scale(-1, 1) translate(-574.882922, -104.077576) " points="505.132476 61.4707421 644.633368 136.766397 644.633368 146.684411 505.132476 70.7647271"></polygon>
                        <polygon id="Rectangle-2-Copy-31" fill="#4B8B99" transform="translate(182.810938, 105.614401) scale(-1, 1) translate(-182.810938, -105.614401) " points="113.060492 63.0075663 252.561384 138.303221 252.561384 148.221235 113.060492 72.3015513"></polygon>
                        <polygon id="Rectangle-2-Copy-32" fill="#4B8B99" transform="translate(378.842076, 211.702542) scale(-1, 1) translate(-378.842076, -211.702542) " points="252.561384 137.315666 505.122768 276.171404 505.122768 286.089418 252.561384 146.609651"></polygon>
                        <polygon id="Rectangle-2-Copy-33" fill="#4B8B99" transform="translate(770.911633, 211.429693) scale(-1, 1) translate(-770.911633, -211.429693) " points="644.628514 138.31004 897.194753 274.631332 897.194753 284.549346 644.628514 147.604025"></polygon>
                        <polygon id="Rectangle-2-Copy-34" fill="#51B9BF" points="7.67386155e-13 139.855531 252.566238 276.171404 252.566238 286.089418 7.67386155e-13 149.149516"></polygon>
                        <path d="M447.264839,108.119419 L644.957377,-1.42108547e-13 L897.194753,138.310083 L644.628514,274.631332 L450.024044,169.594631 L252.566238,276.171404 L8.52651283e-14,139.850155 L252.8951,1.54007208 L447.264839,108.119419 Z M392.071984,138.306469 L252.566238,63.0090034 L113.060492,138.306469 L252.38459,214.702473 L392.063836,138.310925 L447.264839,108.119419 Z M644.628514,61.4689314 L505.122768,136.766397 L644.446866,213.1624 L784.13426,136.766397 L644.628514,61.4689314 Z" id="Combined-Shape-Copy-3" fill="url(#linearGradient-7)"></path>
                        <polygon id="Rectangle-2-Copy-13" fill="#51B9BF" points="252.561384 63.0075663 644.633368 274.631332 644.633368 284.549346 252.561384 72.3015513"></polygon>
                    </g>
                    <g id="Group-3-Copy" transform="translate(1.463415, 38.048780)">
                        <path d="M447.758578,170.209845 L632.74633,64.4993329 L871.268268,197.560976 L638.417498,330.622618 L448.9243,224.912106 L263.936548,330.622618 L25.4146097,197.560976 L258.26538,64.4993329 L447.758578,170.209845 Z M636.70234,250.137687 L728.708777,197.560976 L634.461488,144.984264 L542.455051,197.560976 L636.70234,250.137687 Z M266.719169,250.137687 L358.725607,197.560976 L264.478318,144.984264 L172.471881,197.560976 L266.719169,250.137687 Z" id="Combined-Shape-Copy-5" fill="#8F9DAA" opacity="0.198893229" filter="url(#filter-8)"></path>
                        <polygon id="Rectangle-2-Copy-22" fill="#EBEAEE" points="644.633368 61.4707421 784.13426 136.766397 784.13426 146.684411 644.633368 70.7647271"></polygon>
                        <polygon id="Rectangle-2-Copy-23" fill="#DADFE3" transform="translate(574.882922, 104.077576) scale(-1, 1) translate(-574.882922, -104.077576) " points="505.132476 61.4707421 644.633368 136.766397 644.633368 146.684411 505.132476 70.7647271"></polygon>
                        <polygon id="Rectangle-2-Copy-25" fill="#C1C1C7" transform="translate(182.810938, 105.614401) scale(-1, 1) translate(-182.810938, -105.614401) " points="113.060492 63.0075663 252.561384 138.303221 252.561384 148.221235 113.060492 72.3015513"></polygon>
                        <polygon id="Rectangle-2-Copy-26" fill="#C1C1C7" transform="translate(378.842076, 211.702542) scale(-1, 1) translate(-378.842076, -211.702542) " points="252.561384 137.315666 505.122768 276.171404 505.122768 286.089418 252.561384 146.609651"></polygon>
                        <polygon id="Rectangle-2-Copy-27" fill="#C1C1C7" transform="translate(770.911633, 211.429693) scale(-1, 1) translate(-770.911633, -211.429693) " points="644.628514 138.31004 897.194753 274.631332 897.194753 284.549346 644.628514 147.604025"></polygon>
                        <polygon id="Rectangle-2-Copy-28" fill="#EBEAEE" points="7.67386155e-13 139.855531 252.566238 276.171404 252.566238 286.089418 7.67386155e-13 149.149516"></polygon>
                        <path d="M447.264839,108.119419 L644.957377,-1.42108547e-13 L897.194753,138.310083 L644.628514,274.631332 L450.024044,169.594631 L252.566238,276.171404 L8.52651283e-14,139.850155 L252.8951,1.54007208 L447.264839,108.119419 Z M392.071984,138.306469 L252.566238,63.0090034 L113.060492,138.306469 L252.38459,214.702473 L392.063836,138.310925 L447.264839,108.119419 Z M644.628514,61.4689314 L505.122768,136.766397 L644.446866,213.1624 L784.13426,136.766397 L644.628514,61.4689314 Z" id="Combined-Shape-Copy-2" fill="url(#linearGradient-9)"></path>
                        <polygon id="Rectangle-2-Copy-12" fill="#EBEAEE" points="252.561384 63.0075663 644.633368 274.631332 644.633368 284.549346 252.561384 72.3015513"></polygon>
                    </g>
                    <g id="Group-4-Copy" transform="translate(1.463415, 0.000000)">
                        <path d="M447.758578,170.209845 L632.74633,64.4993329 L871.268268,197.560976 L638.417498,330.622618 L448.9243,224.912106 L263.936548,330.622618 L25.4146097,197.560976 L258.26538,64.4993329 L447.758578,170.209845 Z M636.70234,250.137687 L728.708777,197.560976 L634.461488,144.984264 L542.455051,197.560976 L636.70234,250.137687 Z M266.719169,250.137687 L358.725607,197.560976 L264.478318,144.984264 L172.471881,197.560976 L266.719169,250.137687 Z" id="Combined-Shape-Copy-4" fill="#8F9DAA" opacity="0.198893229" filter="url(#filter-10)"></path>
                        <polygon id="Rectangle-2-Copy-16" fill="#F9FAFC" points="644.633368 61.4707421 784.13426 136.766397 784.13426 146.684411 644.633368 70.7647271"></polygon>
                        <polygon id="Rectangle-2-Copy-18" fill="#DADFE3" transform="translate(574.882922, 104.077576) scale(-1, 1) translate(-574.882922, -104.077576) " points="505.132476 61.4707421 644.633368 136.766397 644.633368 146.684411 505.132476 70.7647271"></polygon>
                        <polygon id="Rectangle-2-Copy-21" fill="#DADFE3" transform="translate(182.810938, 105.614401) scale(-1, 1) translate(-182.810938, -105.614401) " points="113.060492 63.0075663 252.561384 138.303221 252.561384 148.221235 113.060492 72.3015513"></polygon>
                        <polygon id="Rectangle-2-Copy-20" fill="#DADFE3" transform="translate(378.842076, 211.702542) scale(-1, 1) translate(-378.842076, -211.702542) " points="252.561384 137.315666 505.122768 276.171404 505.122768 286.089418 252.561384 146.609651"></polygon>
                        <polygon id="Rectangle-2-Copy-19" fill="#DADFE3" transform="translate(770.911633, 211.429693) scale(-1, 1) translate(-770.911633, -211.429693) " points="644.628514 138.31004 897.194753 274.631332 897.194753 284.549346 644.628514 147.604025"></polygon>
                        <polygon id="Rectangle-2-Copy-17" fill="#F9FAFC" points="7.67386155e-13 139.855531 252.566238 276.171404 252.566238 286.089418 7.67386155e-13 149.149516"></polygon>
                        <path d="M447.264839,108.119419 L644.957377,-1.42108547e-13 L897.194753,138.310083 L644.628514,274.631332 L450.024044,169.594631 L252.566238,276.171404 L8.52651283e-14,139.850155 L252.8951,1.54007208 L447.264839,108.119419 Z M392.071984,138.306469 L252.566238,63.0090034 L113.060492,138.306469 L252.38459,214.702473 L392.063836,138.310925 L447.264839,108.119419 Z M644.628514,61.4689314 L505.122768,136.766397 L644.446866,213.1624 L784.13426,136.766397 L644.628514,61.4689314 Z" id="Combined-Shape" fill="#FFFFFF"></path>
                        <polygon id="Rectangle-2-Copy-15" fill-opacity="0.51" fill="url(#linearGradient-11)" opacity="0.522460938" transform="translate(482.275151, 119.328514) rotate(-180.000000) translate(-482.275151, -119.328514) " points="459.460284 101.83017 517.56728 130.443756 505.717548 136.826858 446.983022 109.081715"></polygon>
                        <polygon id="Rectangle-2-Copy-11" fill="#F9FAFC" points="252.561384 63.0075663 644.633368 274.631332 644.633368 284.549346 252.561384 72.3015513"></polygon>
                    </g>
                </g>
                <g id="Group-7-Copy-9" transform="translate(63.000000, 103.000000)">
                    <polygon id="Rectangle-Copy-21" fill="#91B5C6" filter="url(#filter-12)" points="39.4692159 83 0 62 38.5307841 41 78 62"></polygon>
                    <g id="Group-12-Copy" transform="translate(1.000000, 0.000000)">
                        <g id="Group-Copy-22" transform="translate(8.150794, 35.669173)">
                            <polygon id="Rectangle-2-Copy-5" fill="#099CEC" points="2.22749508e-13 17.6505396 31.3492063 34.6951041 31.3492063 38.5964912 0 21.4106695"></polygon>
                            <polygon id="Rectangle-2-Copy-6" fill="#066DA5" points="31.3492063 34.6951041 62.6984127 17.6505396 62.6984127 21.4106695 31.3492063 38.5964912"></polygon>
                            <polygon id="Rectangle-2-Copy-24" fill="url(#linearGradient-13)" points="31.3492063 34.8194384 62.6984127 17.7748739 31.3900256 0.48164079 0 17.7748739"></polygon>
                        </g>
                        <polygon id="Rectangle-2-Copy-14" fill="#254356" opacity="0.132133152" filter="url(#filter-14)" points="39.5 65.7443609 64.9673261 51.7975002 39.5331606 37.6471643 14.0326739 51.7975002"></polygon>
                        <g id="Group-Copy-23" transform="translate(8.150794, 27.147870)">
                            <polygon id="Rectangle-2-Copy-5" fill="#099CEC" points="2.22749508e-13 17.6505396 31.3492063 34.6951041 31.3492063 38.5964912 0 21.4106695"></polygon>
                            <polygon id="Rectangle-2-Copy-6" fill="#066DA5" points="31.3492063 34.6951041 62.6984127 17.6505396 62.6984127 21.4106695 31.3492063 38.5964912"></polygon>
                            <polygon id="Rectangle-2-Copy-24" fill="url(#linearGradient-15)" points="31.3492063 34.8194384 62.6984127 17.7748739 31.3900256 0.48164079 0 17.7748739"></polygon>
                        </g>
                        <polygon id="Rectangle-2-Copy-14" fill="#254356" opacity="0.132133152" filter="url(#filter-16)" points="39.5 57.3551201 64.9673261 43.4082594 39.5331606 29.2579236 14.0326739 43.4082594"></polygon>
                        <g id="Group-Copy-30" transform="translate(8.150794, 18.626566)">
                            <polygon id="Rectangle-2-Copy-5" fill="#6EC4F3" points="2.22749508e-13 17.6505396 31.3492063 34.6951041 31.3492063 38.5964912 0 21.4106695"></polygon>
                            <polygon id="Rectangle-2-Copy-6" fill="#328BBB" points="31.3492063 34.6951041 62.6984127 17.6505396 62.6984127 21.4106695 31.3492063 38.5964912"></polygon>
                            <polygon id="Rectangle-2-Copy-24" fill="url(#linearGradient-17)" points="31.3492063 34.8194384 62.6984127 17.7748739 31.3900256 0.48164079 0 17.7748739"></polygon>
                        </g>
                        <polygon id="Rectangle-2-Copy-14" fill="#254356" opacity="0.132133152" filter="url(#filter-18)" points="39.5 48.7017544 64.9673261 34.7548937 39.5331606 20.6045578 14.0326739 34.7548937"></polygon>
                        <g id="Group-Copy-25">
                            <polygon id="Rectangle-2-Copy-5" fill="#E7E8E9" points="8.15079365 27.7558028 39.5 44.8003673 39.5 48.7017544 8.15079365 31.5159327"></polygon>
                            <polygon id="Rectangle-2-Copy-6" fill="#B7BBBE" points="39.5 44.8003673 70.8492063 27.7558028 70.8492063 31.5159327 39.5 48.7017544"></polygon>
                            <polygon id="Rectangle-2-Copy-24" fill="#FAFAFA" opacity="0.917643229" points="39.5 44.9247016 70.8492063 27.880137 39.5408193 10.5869039 8.15079365 27.880137"></polygon>
                            <g id="Group-Copy-3" transform="translate(0.000000, 0.095871)" opacity="0.236235119">
                                <g id="Group-Copy" transform="translate(-0.000000, 0.000000)">
                                    <polygon id="Rectangle-2-Copy-5" fill="url(#linearGradient-19)" points="0 21.820034 39.5 43.5942275 39.5 82.7877759 0 61.0135823"></polygon>
                                    <polygon id="Rectangle-2-Copy-6" fill="url(#linearGradient-20)" points="39.5 43.5942275 79 21.820034 79 61.0135823 39.5 82.7877759"></polygon>
                                    <polygon id="Rectangle-2-Copy-7" fill="url(#linearGradient-21)" points="39.5 43.6400679 79 21.978051 39.5514323 0 0 21.978051"></polygon>
                                </g>
                            </g>
                        </g>
                    </g>
                </g>
                <g id="Group-7-Copy-13" transform="translate(750.000000, 103.000000)">
                    <polygon id="Rectangle-Copy-21" fill="#91B5C6" filter="url(#filter-22)" points="39.4692159 83 0 62 38.5307841 41 78 62"></polygon>
                    <g id="Group-12-Copy" transform="translate(1.000000, 0.000000)">
                        <g id="Group-Copy-22" transform="translate(8.150794, 35.669173)">
                            <polygon id="Rectangle-2-Copy-5" fill="#099CEC" points="2.22749508e-13 17.6505396 31.3492063 34.6951041 31.3492063 38.5964912 0 21.4106695"></polygon>
                            <polygon id="Rectangle-2-Copy-6" fill="#066DA5" points="31.3492063 34.6951041 62.6984127 17.6505396 62.6984127 21.4106695 31.3492063 38.5964912"></polygon>
                            <polygon id="Rectangle-2-Copy-24" fill="url(#linearGradient-13)" points="31.3492063 34.8194384 62.6984127 17.7748739 31.3900256 0.48164079 0 17.7748739"></polygon>
                        </g>
                        <polygon id="Rectangle-2-Copy-14" fill="#254356" opacity="0.132133152" filter="url(#filter-23)" points="39.5 65.7443609 64.9673261 51.7975002 39.5331606 37.6471643 14.0326739 51.7975002"></polygon>
                        <g id="Group-Copy-23" transform="translate(8.150794, 27.147870)">
                            <polygon id="Rectangle-2-Copy-5" fill="#099CEC" points="2.22749508e-13 17.6505396 31.3492063 34.6951041 31.3492063 38.5964912 0 21.4106695"></polygon>
                            <polygon id="Rectangle-2-Copy-6" fill="#066DA5" points="31.3492063 34.6951041 62.6984127 17.6505396 62.6984127 21.4106695 31.3492063 38.5964912"></polygon>
                            <polygon id="Rectangle-2-Copy-24" fill="url(#linearGradient-15)" points="31.3492063 34.8194384 62.6984127 17.7748739 31.3900256 0.48164079 0 17.7748739"></polygon>
                        </g>
                        <polygon id="Rectangle-2-Copy-14" fill="#254356" opacity="0.132133152" filter="url(#filter-24)" points="39.5 57.3551201 64.9673261 43.4082594 39.5331606 29.2579236 14.0326739 43.4082594"></polygon>
                        <g id="Group-Copy-30" transform="translate(8.150794, 18.626566)">
                            <polygon id="Rectangle-2-Copy-5" fill="#6EC4F3" points="2.22749508e-13 17.6505396 31.3492063 34.6951041 31.3492063 38.5964912 0 21.4106695"></polygon>
                            <polygon id="Rectangle-2-Copy-6" fill="#328BBB" points="31.3492063 34.6951041 62.6984127 17.6505396 62.6984127 21.4106695 31.3492063 38.5964912"></polygon>
                            <polygon id="Rectangle-2-Copy-24" fill="url(#linearGradient-17)" points="31.3492063 34.8194384 62.6984127 17.7748739 31.3900256 0.48164079 0 17.7748739"></polygon>
                        </g>
                        <polygon id="Rectangle-2-Copy-14" fill="#254356" opacity="0.132133152" filter="url(#filter-25)" points="39.5 48.7017544 64.9673261 34.7548937 39.5331606 20.6045578 14.0326739 34.7548937"></polygon>
                        <g id="Group-Copy-25">
                            <polygon id="Rectangle-2-Copy-5" fill="#E7E8E9" points="8.15079365 27.7558028 39.5 44.8003673 39.5 48.7017544 8.15079365 31.5159327"></polygon>
                            <polygon id="Rectangle-2-Copy-6" fill="#B7BBBE" points="39.5 44.8003673 70.8492063 27.7558028 70.8492063 31.5159327 39.5 48.7017544"></polygon>
                            <polygon id="Rectangle-2-Copy-24" fill="#FAFAFA" opacity="0.917643229" points="39.5 44.9247016 70.8492063 27.880137 39.5408193 10.5869039 8.15079365 27.880137"></polygon>
                            <g id="Group-Copy-3" transform="translate(0.000000, 0.095871)" opacity="0.236235119">
                                <g id="Group-Copy" transform="translate(-0.000000, 0.000000)">
                                    <polygon id="Rectangle-2-Copy-5" fill="url(#linearGradient-19)" points="0 21.820034 39.5 43.5942275 39.5 82.7877759 0 61.0135823"></polygon>
                                    <polygon id="Rectangle-2-Copy-6" fill="url(#linearGradient-20)" points="39.5 43.5942275 79 21.820034 79 61.0135823 39.5 82.7877759"></polygon>
                                    <polygon id="Rectangle-2-Copy-7" fill="url(#linearGradient-21)" points="39.5 43.6400679 79 21.978051 39.5514323 0 0 21.978051"></polygon>
                                </g>
                            </g>
                        </g>
                    </g>
                </g>
                <g id="Group-7-Copy-11" transform="translate(266.000000, 0.000000)">
                    <polygon id="Rectangle-Copy-21" fill="#91B5C6" filter="url(#filter-26)" points="39.4692159 83 0 62 38.5307841 41 78 62"></polygon>
                    <g id="Group-12-Copy" transform="translate(1.000000, 0.000000)">
                        <g id="Group-Copy-22" transform="translate(8.150794, 35.669173)">
                            <polygon id="Rectangle-2-Copy-5" fill="#099CEC" points="2.22749508e-13 17.6505396 31.3492063 34.6951041 31.3492063 38.5964912 0 21.4106695"></polygon>
                            <polygon id="Rectangle-2-Copy-6" fill="#066DA5" points="31.3492063 34.6951041 62.6984127 17.6505396 62.6984127 21.4106695 31.3492063 38.5964912"></polygon>
                            <polygon id="Rectangle-2-Copy-24" fill="url(#linearGradient-13)" points="31.3492063 34.8194384 62.6984127 17.7748739 31.3900256 0.48164079 0 17.7748739"></polygon>
                        </g>
                        <polygon id="Rectangle-2-Copy-14" fill="#254356" opacity="0.132133152" filter="url(#filter-27)" points="39.5 65.7443609 64.9673261 51.7975002 39.5331606 37.6471643 14.0326739 51.7975002"></polygon>
                        <g id="Group-Copy-23" transform="translate(8.150794, 27.147870)">
                            <polygon id="Rectangle-2-Copy-5" fill="#099CEC" points="2.22749508e-13 17.6505396 31.3492063 34.6951041 31.3492063 38.5964912 0 21.4106695"></polygon>
                            <polygon id="Rectangle-2-Copy-6" fill="#066DA5" points="31.3492063 34.6951041 62.6984127 17.6505396 62.6984127 21.4106695 31.3492063 38.5964912"></polygon>
                            <polygon id="Rectangle-2-Copy-24" fill="url(#linearGradient-15)" points="31.3492063 34.8194384 62.6984127 17.7748739 31.3900256 0.48164079 0 17.7748739"></polygon>
                        </g>
                        <polygon id="Rectangle-2-Copy-14" fill="#254356" opacity="0.132133152" filter="url(#filter-28)" points="39.5 57.3551201 64.9673261 43.4082594 39.5331606 29.2579236 14.0326739 43.4082594"></polygon>
                        <g id="Group-Copy-30" transform="translate(8.150794, 18.626566)">
                            <polygon id="Rectangle-2-Copy-5" fill="#6EC4F3" points="2.22749508e-13 17.6505396 31.3492063 34.6951041 31.3492063 38.5964912 0 21.4106695"></polygon>
                            <polygon id="Rectangle-2-Copy-6" fill="#328BBB" points="31.3492063 34.6951041 62.6984127 17.6505396 62.6984127 21.4106695 31.3492063 38.5964912"></polygon>
                            <polygon id="Rectangle-2-Copy-24" fill="url(#linearGradient-17)" points="31.3492063 34.8194384 62.6984127 17.7748739 31.3900256 0.48164079 0 17.7748739"></polygon>
                        </g>
                        <polygon id="Rectangle-2-Copy-14" fill="#254356" opacity="0.132133152" filter="url(#filter-29)" points="39.5 48.7017544 64.9673261 34.7548937 39.5331606 20.6045578 14.0326739 34.7548937"></polygon>
                        <g id="Group-Copy-25">
                            <polygon id="Rectangle-2-Copy-5" fill="#E7E8E9" points="8.15079365 27.7558028 39.5 44.8003673 39.5 48.7017544 8.15079365 31.5159327"></polygon>
                            <polygon id="Rectangle-2-Copy-6" fill="#B7BBBE" points="39.5 44.8003673 70.8492063 27.7558028 70.8492063 31.5159327 39.5 48.7017544"></polygon>
                            <polygon id="Rectangle-2-Copy-24" fill="#FAFAFA" opacity="0.917643229" points="39.5 44.9247016 70.8492063 27.880137 39.5408193 10.5869039 8.15079365 27.880137"></polygon>
                            <g id="Group-Copy-3" transform="translate(0.000000, 0.095871)" opacity="0.236235119">
                                <g id="Group-Copy" transform="translate(-0.000000, 0.000000)">
                                    <polygon id="Rectangle-2-Copy-5" fill="url(#linearGradient-19)" points="0 21.820034 39.5 43.5942275 39.5 82.7877759 0 61.0135823"></polygon>
                                    <polygon id="Rectangle-2-Copy-6" fill="url(#linearGradient-20)" points="39.5 43.5942275 79 21.820034 79 61.0135823 39.5 82.7877759"></polygon>
                                    <polygon id="Rectangle-2-Copy-7" fill="url(#linearGradient-21)" points="39.5 43.6400679 79 21.978051 39.5514323 0 0 21.978051"></polygon>
                                </g>
                            </g>
                        </g>
                    </g>
                </g>
                <g id="Group-7-Copy-12" transform="translate(549.000000, 0.000000)">
                    <polygon id="Rectangle-Copy-21" fill="#91B5C6" filter="url(#filter-30)" points="39.4692159 83 0 62 38.5307841 41 78 62"></polygon>
                    <g id="Group-12-Copy" transform="translate(1.000000, 0.000000)">
                        <g id="Group-Copy-22" transform="translate(8.150794, 35.669173)">
                            <polygon id="Rectangle-2-Copy-5" fill="#099CEC" points="2.22749508e-13 17.6505396 31.3492063 34.6951041 31.3492063 38.5964912 0 21.4106695"></polygon>
                            <polygon id="Rectangle-2-Copy-6" fill="#066DA5" points="31.3492063 34.6951041 62.6984127 17.6505396 62.6984127 21.4106695 31.3492063 38.5964912"></polygon>
                            <polygon id="Rectangle-2-Copy-24" fill="url(#linearGradient-13)" points="31.3492063 34.8194384 62.6984127 17.7748739 31.3900256 0.48164079 0 17.7748739"></polygon>
                        </g>
                        <polygon id="Rectangle-2-Copy-14" fill="#254356" opacity="0.132133152" filter="url(#filter-31)" points="39.5 65.7443609 64.9673261 51.7975002 39.5331606 37.6471643 14.0326739 51.7975002"></polygon>
                        <g id="Group-Copy-23" transform="translate(8.150794, 27.147870)">
                            <polygon id="Rectangle-2-Copy-5" fill="#099CEC" points="2.22749508e-13 17.6505396 31.3492063 34.6951041 31.3492063 38.5964912 0 21.4106695"></polygon>
                            <polygon id="Rectangle-2-Copy-6" fill="#066DA5" points="31.3492063 34.6951041 62.6984127 17.6505396 62.6984127 21.4106695 31.3492063 38.5964912"></polygon>
                            <polygon id="Rectangle-2-Copy-24" fill="url(#linearGradient-15)" points="31.3492063 34.8194384 62.6984127 17.7748739 31.3900256 0.48164079 0 17.7748739"></polygon>
                        </g>
                        <polygon id="Rectangle-2-Copy-14" fill="#254356" opacity="0.132133152" filter="url(#filter-32)" points="39.5 57.3551201 64.9673261 43.4082594 39.5331606 29.2579236 14.0326739 43.4082594"></polygon>
                        <g id="Group-Copy-30" transform="translate(8.150794, 18.626566)">
                            <polygon id="Rectangle-2-Copy-5" fill="#6EC4F3" points="2.22749508e-13 17.6505396 31.3492063 34.6951041 31.3492063 38.5964912 0 21.4106695"></polygon>
                            <polygon id="Rectangle-2-Copy-6" fill="#328BBB" points="31.3492063 34.6951041 62.6984127 17.6505396 62.6984127 21.4106695 31.3492063 38.5964912"></polygon>
                            <polygon id="Rectangle-2-Copy-24" fill="url(#linearGradient-17)" points="31.3492063 34.8194384 62.6984127 17.7748739 31.3900256 0.48164079 0 17.7748739"></polygon>
                        </g>
                        <polygon id="Rectangle-2-Copy-14" fill="#254356" opacity="0.132133152" filter="url(#filter-33)" points="39.5 48.7017544 64.9673261 34.7548937 39.5331606 20.6045578 14.0326739 34.7548937"></polygon>
                        <g id="Group-Copy-25">
                            <polygon id="Rectangle-2-Copy-5" fill="#E7E8E9" points="8.15079365 27.7558028 39.5 44.8003673 39.5 48.7017544 8.15079365 31.5159327"></polygon>
                            <polygon id="Rectangle-2-Copy-6" fill="#B7BBBE" points="39.5 44.8003673 70.8492063 27.7558028 70.8492063 31.5159327 39.5 48.7017544"></polygon>
                            <polygon id="Rectangle-2-Copy-24" fill="#FAFAFA" opacity="0.917643229" points="39.5 44.9247016 70.8492063 27.880137 39.5408193 10.5869039 8.15079365 27.880137"></polygon>
                            <g id="Group-Copy-3" transform="translate(0.000000, 0.095871)" opacity="0.236235119">
                                <g id="Group-Copy" transform="translate(-0.000000, 0.000000)">
                                    <polygon id="Rectangle-2-Copy-5" fill="url(#linearGradient-19)" points="0 21.820034 39.5 43.5942275 39.5 82.7877759 0 61.0135823"></polygon>
                                    <polygon id="Rectangle-2-Copy-6" fill="url(#linearGradient-20)" points="39.5 43.5942275 79 21.820034 79 61.0135823 39.5 82.7877759"></polygon>
                                    <polygon id="Rectangle-2-Copy-7" fill="url(#linearGradient-21)" points="39.5 43.6400679 79 21.978051 39.5514323 0 0 21.978051"></polygon>
                                </g>
                            </g>
                        </g>
                    </g>
                </g>
            </g>
        </g>
    </g>
</svg>